<?xml version="1.0" encoding="utf-8"?>
<!-- Generator: Adobe Illustrator 23.0.3, SVG Export Plug-In . SVG Version: 6.00 Build 0)  -->
<svg version="1.1" id="Layer_1" xmlns="http://www.w3.org/2000/svg" xmlns:xlink="http://www.w3.org/1999/xlink" x="0px" y="0px"
	 viewBox="0 0 160.1 33" style="enable-background:new 0 0 160.1 33;" xml:space="preserve">
<style type="text/css">
	.st0{fill:#19A775;}
	.st1{fill:#59595B;}
</style>
<g>
	<path class="st0" d="M-0.1,12.5L34,17.1L30,22.4h6.8l7.4-9.9H-0.1z M-0.1,0.4l61.1,5l-12.8,17H55l16.5-22H-0.1z M66.3,22.4h6.8
		l8.2-10.9l78.7-5H78.3L66.3,22.4z M160.1,0.4H73.8l-16.5,22h6.8l12.7-17L160.1,0.4z M57.9,6.5L57.9,6.5l-58,0l47.6,4.9l-8.3,11.1
		h6.8L57.9,6.5L57.9,6.5z M82.8,12.5L82.8,12.5l-7.4,9.9h6.8l3.7-4.9l74.2-5L82.8,12.5L82.8,12.5z"/>
	<path class="st1" d="M35.1,27.5v4.9h-2.1v-4.9h-4v-1.1h10.2v1.1H35.1z M48.3,27.5h-4.6v1.7h4.6c0.3,0,0.5,0,0.8-0.1
		c0.1-0.1,0.2-0.2,0.2-0.3v-0.7c0-0.2-0.1-0.3-0.2-0.3C48.9,27.5,48.7,27.5,48.3,27.5 M41.7,32.4v-5.9h7.6c0.7,0,1.2,0.1,1.5,0.3
		c0.3,0.2,0.4,0.4,0.4,0.9V29c0,0.4-0.1,0.7-0.4,0.9c-0.3,0.2-0.9,0.3-1.5,0.3h-1.1l4,2.3h-3.1l-3.5-2.3h-2v2.3L41.7,32.4L41.7,32.4
		z M57,30.1h3.8L59,27.6L57,30.1z M53.1,32.4l4.9-5.9h2l5,5.9h-2.3l-1.1-1.3h-5.6l-1,1.3H53.1z M67.9,32.4v-5.9h1.4l6.2,3.5
		c0.2,0.1,0.4,0.3,0.5,0.3c0.1,0.1,0.3,0.2,0.4,0.4c0-0.4,0-0.6-0.1-0.7c0-0.2,0-0.3,0-0.4v-3.1h1.9v5.9h-1.4l-6.5-3.7
		c-0.1-0.1-0.3-0.2-0.4-0.3c-0.1-0.1-0.2-0.2-0.3-0.3c0,0.2,0,0.4,0.1,0.5c0,0.2,0,0.3,0,0.4v3.2L67.9,32.4L67.9,32.4z M90.3,27.5
		h-5.8v1.3H90c0.9,0,1.4,0.1,1.8,0.3c0.3,0.2,0.4,0.6,0.4,1.1V31c0,0.5-0.1,0.9-0.4,1.1c-0.3,0.2-0.9,0.3-1.8,0.3h-5.5
		c-0.9,0-1.4-0.1-1.8-0.3c-0.3-0.2-0.4-0.5-0.4-1.1v-0.2l1.8-0.3v0.7h6.2v-1.4h-5.5c-0.9,0-1.4-0.1-1.8-0.3
		c-0.3-0.2-0.4-0.6-0.4-1.1v-0.7c0-0.5,0.1-0.9,0.4-1.1c0.3-0.2,0.9-0.3,1.8-0.3h5c0.9,0,1.4,0.1,1.8,0.3c0.3,0.2,0.4,0.5,0.4,1v0.1
		l-1.9,0.3v-0.5H90.3L90.3,27.5z M98.5,31.3h2.6c1.4,0,2.4-0.2,3-0.4c0.5-0.3,0.9-0.8,0.9-1.5c0-0.6-0.2-1-0.8-1.4
		c-0.4-0.4-1.2-0.4-2.2-0.4h-3.6v3.8H98.5L98.5,31.3z M96.4,32.4v-5.9h5.7c1.6,0,2.8,0.3,3.7,0.8c0.9,0.5,1.3,1.2,1.3,2.2
		c0,0.5-0.2,1.1-0.5,1.5c-0.3,0.4-0.8,0.8-1.4,1c-0.3,0.2-0.9,0.3-1.4,0.3c-0.5,0.1-1.3,0.1-2.2,0.1H96.4L96.4,32.4z M112.9,30.1
		h3.8l-1.9-2.4L112.9,30.1z M108.9,32.4l4.9-5.9h2l5,5.9h-2.3l-1.1-1.3h-5.6l-1,1.3H108.9z M126.6,27.5h4.1v-1.1h-10.2v1.1h4v4.9
		h2.1V27.5L126.6,27.5z M133.1,27.9c0-0.5,0.1-0.9,0.4-1.1c0.3-0.2,0.9-0.3,1.8-0.3h6.5c0.9,0,1.4,0.1,1.7,0.3
		c0.3,0.2,0.4,0.6,0.4,1.1V31c0,0.5-0.1,0.9-0.4,1.1c-0.3,0.2-0.9,0.3-1.7,0.3h-6.5c-0.9,0-1.4-0.1-1.8-0.3
		c-0.3-0.2-0.4-0.5-0.4-1.1V27.9z M135.1,31.3h6.8v-3.8h-6.8V31.3z M155.9,27.5h-5.8v1.3h5.5c0.9,0,1.4,0.1,1.8,0.3
		c0.3,0.2,0.4,0.6,0.4,1.1V31c0,0.5-0.1,0.9-0.4,1.1c-0.3,0.2-0.9,0.3-1.8,0.3h-5.5c-0.9,0-1.4-0.1-1.7-0.3
		c-0.3-0.2-0.4-0.5-0.4-1.1v-0.2l1.8-0.3v0.7h6.2v-1.4h-5.5c-0.9,0-1.4-0.1-1.8-0.3c-0.3-0.2-0.4-0.6-0.4-1.1v-0.7
		c0-0.5,0.1-0.9,0.4-1.1c0.3-0.2,0.9-0.3,1.8-0.3h5c0.9,0,1.4,0.1,1.8,0.3c0.3,0.2,0.4,0.5,0.4,1v0.1l-1.7,0.3V27.5L155.9,27.5z"/>
</g>
</svg>
